<svg version="1.1" id="Layer_1" xmlns="http://www.w3.org/2000/svg" xmlns:xlink="http://www.w3.org/1999/xlink" x="0px" y="0px"
	 width="100%" viewBox="0 0 179 168" enable-background="new 0 0 179 168" xml:space="preserve">
<path fill="none" stroke="none" 
    d="
M180.000000,66.000000 
    C180.000000,100.666664 180.000000,134.833328 180.000000,169.000000 
    C120.333336,169.000000 60.666668,169.000000 1.000000,169.000000 
    C1.000000,113.000000 1.000000,57.000000 1.000000,1.000000 
    C60.666668,1.000000 120.333336,1.000000 180.000000,1.000000 
    C180.000000,22.500000 180.000000,44.000000 180.000000,66.000000 
M170.148575,92.723930 
    C169.997986,86.081749 170.604889,79.319427 169.573517,72.816948 
    C163.023651,31.521755 127.391113,2.917221 85.692513,5.090490 
    C45.425629,7.189140 13.069958,39.996037 10.763341,81.064613 
    C8.338493,124.238266 41.443657,161.706314 84.806946,164.866318 
    C127.716980,167.993301 165.739777,136.222900 170.148575,92.723930 
z"/>
<path fill="#243556" opacity="1.000000" stroke="#243556" stroke-width="3" 
    d="
M170.112961,93.170761 
    C165.739777,136.222900 127.716980,167.993301 84.806946,164.866318 
    C41.443657,161.706314 8.338493,124.238266 10.763341,81.064613 
    C13.069958,39.996037 45.425629,7.189140 85.692513,5.090490 
    C127.391113,2.917221 163.023651,31.521755 169.573517,72.816948 
    C170.604889,79.319427 169.997986,86.081749 170.112961,93.170761 
M28.013287,116.359261 
    C42.608700,143.995865 70.398201,158.372635 101.010185,154.123917 
    C135.542572,149.331055 162.548477,117.133484 160.587616,83.093185 
    C158.404068,45.186386 129.535324,16.019558 93.245491,15.055670 
    C40.004555,13.641546 5.215971,67.052399 28.013287,116.359261 
z"/>
<path fill="none" opacity="1.000000" stroke="none" 
	d="
M27.861954,116.015251 
	C5.215971,67.052399 40.004555,13.641546 93.245491,15.055670 
	C129.535324,16.019558 158.404068,45.186386 160.587616,83.093185 
	C162.548477,117.133484 135.542572,149.331055 101.010185,154.123917 
	C70.398201,158.372635 42.608700,143.995865 27.861954,116.015251 
M84.295677,113.199257 
	C79.914612,114.019043 75.431366,114.490540 71.176086,115.739044 
	C64.547173,117.683952 58.405251,117.239243 52.519466,113.577209 
	C51.110081,112.700317 49.672436,111.299278 48.197479,111.231316 
	C46.004456,111.130280 43.766640,112.001335 41.547890,112.458694 
	C42.053925,114.799400 41.749508,118.143135 43.199917,119.315079 
	C51.483814,126.008591 61.162609,129.510818 71.548813,125.837730 
	C81.776779,122.220619 90.397842,123.710228 99.321701,129.475632 
	C108.204704,135.214630 118.713531,133.633804 126.412605,126.406876 
	C130.532333,122.539803 134.366699,118.369324 138.344849,114.350601 
	C140.615891,112.056389 141.549896,109.566612 139.030396,106.946968 
	C136.293777,104.101555 133.693771,105.165131 131.283096,107.584633 
	C127.878761,111.001442 124.505920,114.451225 121.041435,117.806175 
	C114.896629,123.756699 109.744186,123.878654 102.134956,119.825676 
	C96.815849,116.992500 90.841446,115.389603 84.295677,113.199257 
M113.129051,45.196541 
	C110.311501,47.624813 106.485489,49.516262 104.856155,52.577053 
	C98.767273,64.015358 98.924545,75.895187 104.732773,87.485962 
	C106.891357,91.793594 110.237183,95.022743 115.603760,95.000702 
	C120.967987,94.978668 124.310921,91.716370 126.439270,87.411179 
	C132.175339,75.808365 132.208328,63.996113 126.341911,52.429977 
	C123.871544,47.559429 119.936180,44.352615 113.129051,45.196541 
M69.762733,35.130051 
	C68.046257,36.610359 66.369644,38.140095 64.606133,39.562069 
	C58.333832,44.619606 52.258904,49.970528 45.637131,54.523769 
	C42.709579,56.536800 39.424332,57.697666 41.140240,61.854473 
	C43.023327,66.416275 46.724041,65.175438 49.983799,63.649460 
	C59.629829,59.133892 67.689095,52.614990 73.822327,43.862885 
	C76.803856,39.608253 75.726471,36.960598 69.762733,35.130051 
M67.434700,72.007744 
	C63.097916,73.093338 58.590656,73.768242 54.506893,75.463394 
	C52.835434,76.157204 50.919495,79.281013 51.230698,80.890137 
	C51.547077,82.526047 54.707863,85.036278 56.209530,84.776176 
	C63.365097,83.536758 70.474808,81.771843 77.369766,79.494339 
	C78.864494,79.000603 80.548691,75.284538 80.065308,73.678978 
	C79.593544,72.112038 76.553978,70.725555 74.467606,70.409645 
	C72.512566,70.113632 70.329529,71.323448 67.434700,72.007744 
z"/>
<path fill="#253655" opacity="1.000000" stroke="#243556"  stroke-width="3" 
	d="
M84.727699,113.218231 
	C90.841446,115.389603 96.815849,116.992500 102.134956,119.825676 
	C109.744186,123.878654 114.896629,123.756699 121.041435,117.806175 
	C124.505920,114.451225 127.878761,111.001442 131.283096,107.584633 
	C133.693771,105.165131 136.293777,104.101555 139.030396,106.946968 
	C141.549896,109.566612 140.615891,112.056389 138.344849,114.350601 
	C134.366699,118.369324 130.532333,122.539803 126.412605,126.406876 
	C118.713531,133.633804 108.204704,135.214630 99.321701,129.475632 
	C90.397842,123.710228 81.776779,122.220619 71.548813,125.837730 
	C61.162609,129.510818 51.483814,126.008591 43.199917,119.315079 
	C41.749508,118.143135 42.053925,114.799400 41.547890,112.458694 
	C43.766640,112.001335 46.004456,111.130280 48.197479,111.231316 
	C49.672436,111.299278 51.110081,112.700317 52.519466,113.577209 
	C58.405251,117.239243 64.547173,117.683952 71.176086,115.739044 
	C75.431366,114.490540 79.914612,114.019043 84.727699,113.218231 
z"/>
<path fill="#253556" opacity="1.000000" stroke="#243556"  stroke-width="3" 
	d="
M113.523788,45.136719 
	C119.936180,44.352615 123.871544,47.559429 126.341911,52.429977 
	C132.208328,63.996113 132.175339,75.808365 126.439270,87.411179 
	C124.310921,91.716370 120.967987,94.978668 115.603760,95.000702 
	C110.237183,95.022743 106.891357,91.793594 104.732773,87.485962 
	C98.924545,75.895187 98.767273,64.015358 104.856155,52.577053 
	C106.485489,49.516262 110.311501,47.624813 113.523788,45.136719 
M118.918251,59.897171 
	C117.937592,58.240326 116.956924,56.583485 115.905495,54.807079 
	C108.818138,62.126381 108.772362,77.532410 115.785797,85.161751 
	C121.658691,77.505707 121.351868,69.220284 118.918251,59.897171 
z"/>
<path fill="#253555" opacity="1.000000" stroke="#243556"  stroke-width="3" 
	d="
M70.131683,35.103470 
	C75.726471,36.960598 76.803856,39.608253 73.822327,43.862885 
	C67.689095,52.614990 59.629829,59.133892 49.983799,63.649460 
	C46.724041,65.175438 43.023327,66.416275 41.140240,61.854473 
	C39.424332,57.697666 42.709579,56.536800 45.637131,54.523769 
	C52.258904,49.970528 58.333832,44.619606 64.606133,39.562069 
	C66.369644,38.140095 68.046257,36.610359 70.131683,35.103470 
z"/>
<path fill="#253656" opacity="1.000000" stroke="#243556"  stroke-width="3" 
	d="
M67.840767,71.939171 
	C70.329529,71.323448 72.512566,70.113632 74.467606,70.409645 
	C76.553978,70.725555 79.593544,72.112038 80.065308,73.678978 
	C80.548691,75.284538 78.864494,79.000603 77.369766,79.494339 
	C70.474808,81.771843 63.365097,83.536758 56.209530,84.776176 
	C54.707863,85.036278 51.547077,82.526047 51.230698,80.890137 
	C50.919495,79.281013 52.835434,76.157204 54.506893,75.463394 
	C58.590656,73.768242 63.097916,73.093338 67.840767,71.939171 
z"/>
<path fill="none" opacity="1.000000" stroke="none" 
	d="
M119.034393,60.270615 
	C121.351868,69.220284 121.658691,77.505707 115.785797,85.161751 
	C108.772362,77.532410 108.818138,62.126381 115.905495,54.807079 
	C116.956924,56.583485 117.937592,58.240326 119.034393,60.270615 
z"/>
</svg>