<?xml version="1.0" encoding="UTF-8"?>
<svg xmlns="http://www.w3.org/2000/svg" xmlns:xlink="http://www.w3.org/1999/xlink" width="148.86pt" height="148.81pt" viewBox="0 0 148.86 148.81" version="1.1">
<defs>
<clipPath id="clip1">
  <path d="M 0 0 L 148.859375 0 L 148.859375 148.808594 L 0 148.808594 Z M 0 0 "/>
</clipPath>
</defs>
<g id="surface1">
<g clip-path="url(#clip1)" clip-rule="nonzero">
<path style=" stroke:none;fill-rule:nonzero;fill:rgb(13.699341%,12.199402%,12.5%);fill-opacity:1;" d="M 15.011719 30.566406 C 15.011719 30.566406 20.375 20.835938 30.582031 14.992188 L 42.828125 24.175781 C 42.828125 24.175781 51.078125 18.546875 61.269531 16.460938 L 63.429688 1.445313 C 63.429688 1.445313 73.664063 -1.800781 85.527344 1.445313 L 87.691406 16.460938 C 87.691406 16.460938 96.785156 18.148438 106.082031 24.140625 L 118.199219 15.019531 C 118.199219 15.019531 126.847656 19.066406 133.921875 30.539063 L 124.753906 42.730469 C 124.753906 42.730469 130.480469 52.097656 132.300781 61.195313 L 147.53125 63.410156 C 147.53125 63.410156 150.566406 73.785156 147.460938 85.375 L 132.300781 87.597656 C 132.300781 87.597656 130.210938 97.230469 124.753906 105.921875 L 133.921875 118.109375 C 133.921875 118.109375 128.929688 127.675781 118.285156 133.800781 L 106.015625 124.578125 C 106.015625 124.578125 97.476563 130.167969 87.632813 132.253906 L 85.46875 147.339844 C 85.46875 147.339844 75.691406 150.644531 63.429688 147.34375 L 61.25 132.296875 C 61.25 132.296875 50.957031 130.046875 42.9375 124.644531 L 30.671875 133.800781 C 30.671875 133.800781 21.507813 129.355469 15.039063 118.175781 L 24.144531 106.050781 C 24.144531 106.050781 18.863281 98.53125 16.589844 87.597656 L 1.484375 85.441406 C 1.484375 85.441406 -1.855469 75.617188 1.484375 63.351563 L 16.457031 61.253906 C 16.457031 61.253906 18.257813 52 24.109375 42.769531 L 15.011719 30.566406 "/>
</g>
<path style=" stroke:none;fill-rule:nonzero;fill:rgb(92.498779%,12.89978%,18.798828%);fill-opacity:1;" d="M 31.386719 74.394531 C 31.386719 50.632813 50.664063 31.375 74.429688 31.375 C 98.203125 31.375 117.472656 50.632813 117.472656 74.394531 C 117.472656 98.148438 98.203125 117.410156 74.429688 117.410156 C 50.664063 117.410156 31.386719 98.148438 31.386719 74.394531 "/>
<path style=" stroke:none;fill-rule:nonzero;fill:rgb(100%,100%,100%);fill-opacity:1;" d="M 79.097656 70.628906 L 55.742188 70.628906 C 55.742188 70.628906 53.253906 71.054688 53.253906 73.550781 L 53.253906 82.757813 C 53.253906 82.757813 53.820313 84.945313 55.964844 84.945313 L 72.996094 84.945313 L 73.027344 87.253906 L 53.195313 87.253906 L 53.195313 93.261719 L 76.425781 93.261719 C 76.425781 93.261719 79.097656 92.789063 79.097656 90.710938 L 79.097656 81.210938 C 79.097656 81.210938 78.441406 78.9375 76.359375 78.9375 C 74.285156 78.9375 59.296875 78.9375 59.296875 78.9375 L 59.296875 76.753906 L 79.03125 76.753906 L 79.097656 70.628906 "/>
<path style=" stroke:none;fill-rule:nonzero;fill:rgb(100%,100%,100%);fill-opacity:1;" d="M 82.65625 73.574219 C 82.65625 71.972656 83.957031 70.675781 85.5625 70.675781 L 107.347656 70.675781 C 108.945313 70.675781 110.238281 71.972656 110.238281 73.574219 L 110.238281 90.429688 C 110.238281 92.027344 108.945313 93.320313 107.347656 93.320313 L 85.5625 93.320313 C 83.957031 93.320313 82.65625 92.027344 82.65625 90.429688 L 82.65625 73.574219 "/>
<path style=" stroke:none;fill-rule:nonzero;fill:rgb(92.498779%,12.89978%,18.798828%);fill-opacity:1;" d="M 88.753906 77.527344 C 88.753906 77.058594 89.128906 76.683594 89.59375 76.683594 L 103.3125 76.683594 C 103.773438 76.683594 104.152344 77.058594 104.152344 77.527344 L 104.152344 86.46875 C 104.152344 86.929688 103.773438 87.3125 103.3125 87.3125 L 89.59375 87.3125 C 89.128906 87.3125 88.753906 86.929688 88.753906 86.46875 L 88.753906 77.527344 "/>
<path style=" stroke:none;fill-rule:nonzero;fill:rgb(100%,100%,100%);fill-opacity:1;" d="M 40.882813 61.554688 L 48.066406 61.554688 L 50.371094 93.25 L 38.574219 93.25 L 40.882813 61.554688 "/>
<path style=" stroke:none;fill-rule:nonzero;fill:rgb(100%,100%,100%);fill-opacity:1;" d="M 41.476563 53.34375 L 41.007813 59.6875 L 47.933594 59.6875 L 47.476563 53.34375 L 41.476563 53.34375 "/>
<path style=" stroke:none;fill-rule:nonzero;fill:rgb(100%,100%,100%);fill-opacity:1;" d="M 48.515625 52.550781 C 48.515625 52.550781 54.378906 45.796875 63.292969 45.957031 C 72.207031 46.117188 78.941406 53.558594 81.453125 55.207031 C 83.964844 56.855469 89.066406 59.703125 99.390625 59.1875 C 99.390625 59.1875 92.222656 67.28125 80.933594 64.257813 C 71.246094 61.664063 72.113281 56.9375 63.578125 52.785156 C 56.851563 49.523438 48.515625 52.550781 48.515625 52.550781 "/>
<path style=" stroke:none;fill-rule:evenodd;fill:rgb(100%,100%,100%);fill-opacity:1;" d="M 75.46875 47.761719 C 75.46875 47.761719 79.605469 49.273438 88.96875 47.761719 C 98.339844 46.25 101.199219 47.597656 104.738281 49.976563 C 108.28125 52.351563 109.195313 56.210938 109.195313 56.210938 C 109.195313 56.210938 107.277344 54.726563 99.988281 56.210938 C 92.695313 57.695313 89.871094 56.914063 85.863281 55.453125 C 81.867188 53.996094 75.46875 47.761719 75.46875 47.761719 "/>
</g>
</svg>
